<svg width="21" height="21" viewBox="0 0 21 21" fill="none" xmlns="http://www.w3.org/2000/svg">
<path d="M10.5 5.41935C7.69855 5.41935 5.41935 7.69855 5.41935 10.5C5.41935 13.3014 7.69855 15.5806 10.5 15.5806C12.2872 15.5806 13.8607 14.6523 14.7666 13.2533C15.4291 13.8571 16.3094 14.2258 17.2742 14.2258C19.3286 14.2258 21 12.5544 21 10.5C21 4.71032 16.2898 0 10.5 0C4.71023 0 0 4.71032 0 10.5C0 16.2897 4.71023 21 10.5 21C13.3046 21 15.9414 19.9078 17.9246 17.9246L16.4876 16.4876C14.8883 18.0869 12.7618 18.9678 10.5 18.9678C5.8309 18.9678 2.03224 15.1691 2.03224 10.5C2.03224 5.83086 5.8309 2.03224 10.5 2.03224C15.1691 2.03224 18.9678 5.8309 18.9678 10.5C18.9678 11.4338 18.208 12.1935 17.2742 12.1935C16.3404 12.1935 15.5807 11.4338 15.5807 10.5V10.5C15.5806 7.69855 13.3014 5.41935 10.5 5.41935ZM10.5 13.5484C8.81906 13.5484 7.4516 12.1809 7.4516 10.5C7.4516 8.8191 8.81902 7.4516 10.5 7.4516C12.181 7.4516 13.5484 8.8191 13.5484 10.5C13.5484 12.1809 12.1809 13.5484 10.5 13.5484Z" fill="#484B4D"/>
</svg>
