<svg width="121" height="67" viewBox="0 0 121 67" fill="none" xmlns="http://www.w3.org/2000/svg">
<path d="M110.423 2.20509C107.123 3.90129 103.738 6.53041 97.9 11.8734C93.2461 16.1139 92.1461 18.8279 95.7846 16.8772C96.7153 16.3684 99.7615 16.1139 102.385 16.2836C108.138 16.7076 112.285 19.4215 115.246 24.595C116.346 26.4608 117.531 27.9874 117.954 27.9874C118.8 27.9874 117.954 9.49876 116.938 5.59749C115.923 1.86585 113.554 0.593697 110.423 2.20509ZM114.992 5.25825C115.415 6.36078 115.923 10.8557 116.261 15.2658L116.854 23.3228L114.992 20.9481C112.115 17.2165 106.615 14.4177 101.961 14.4177H97.9L99.5076 12.6367C102.385 9.41395 111.015 3.39243 112.623 3.39243C113.554 3.39243 114.569 4.24053 114.992 5.25825Z" fill="black"/>
<path d="M108.646 6.61524C106.869 7.9722 104.585 9.92284 103.738 10.9406C102.131 12.7216 102.131 12.7216 104.669 12.7216C106.192 12.7216 108.731 13.8241 110.846 15.3507L114.485 17.9798L113.977 11.8735C113.723 8.48106 113.131 5.34309 112.708 4.91904C112.285 4.49499 110.508 5.25828 108.646 6.61524Z" fill="black"/>
<path d="M7.10767 3.81647C5.75383 5.85191 2.19998 27.0544 3.04613 27.9025C3.21537 28.157 5.33075 26.2063 7.61537 23.5772C9.89998 21.0329 12.9461 18.4038 14.3 17.8101C16.7538 16.7924 22.1692 16.962 27.5 18.2342C29.7846 18.7431 29.1923 17.9798 22.8461 11.4494C12.9461 1.35697 9.73075 -0.169607 7.10767 3.81647ZM17.0077 7.97216C24.4538 14.5025 24.7077 15.2658 19.8846 15.2658C15.4 15.2658 11.7615 16.8772 7.69998 20.6937L4.90767 23.3228L5.33075 20.7785C5.5846 19.3367 6.09229 16.2836 6.34614 13.9937C7.2769 6.44558 8.3769 3.39242 10.1538 3.39242C11 3.39242 14.1308 5.51267 17.0077 7.97216Z" fill="black"/>
<path d="M9.73072 5.93673C9.47687 6.36078 9.0538 9.24433 8.71533 12.2975L8.20764 17.895L11.423 15.7747C13.3692 14.4177 15.823 13.5696 17.6846 13.5696H20.6461L16.4999 9.32913C12.3538 5.17344 10.7461 4.32534 9.73072 5.93673Z" fill="black"/>
<path d="M16.0769 22.1355C10.5769 24.3406 7.78458 29.8532 9.22305 35.4507C10.5769 40.3697 13.4538 42.5747 19.0384 43.0836C23.4384 43.4228 23.7769 43.338 26.6538 40.4545C28.2615 38.8431 29.6154 37.0621 29.6154 36.5532C29.6154 35.1114 25.3 35.4507 23.523 37.0621C21.4077 39.0127 17.0077 38.8431 15.4846 36.8076C14.8077 35.8747 14.3846 33.7545 14.5538 31.8038C14.723 29.1747 15.3154 28.157 17.1769 27.1393C19.2923 25.9519 19.7154 26.0368 22.0846 27.3089C24.7923 28.9203 29.6154 29.3443 29.6154 28.0722C29.6154 26.4608 24.5384 22.3051 21.9154 21.7114C18.7 21.1178 18.7 21.1178 16.0769 22.1355Z" fill="black"/>
<path d="M77.9307 22.7291C73.6153 24.8494 71.6692 28.0722 71.6692 32.4823C71.8384 39.0127 76.0692 43.2532 82.5 43.2532C89.0153 43.2532 93.0769 38.9279 93.0769 31.9734C93.0769 27.5633 90.7923 24.0861 86.6461 22.3899C82.923 20.8633 81.4 20.8633 77.9307 22.7291ZM86.3077 27.9873C88 29.6836 88.5923 34.2633 87.323 36.1291C86.223 37.9101 82.923 39.0127 80.8077 38.5038C74.8 36.9772 76.2384 26.2911 82.5 26.2911C83.6846 26.2911 85.3769 27.0544 86.3077 27.9873Z" fill="black"/>
<path d="M54.1539 24.1709C54.1539 25.3582 53.8154 26.2911 53.3077 26.2911C52.8846 26.2911 52.4615 27.2241 52.4615 28.4114C52.4615 29.5987 52.8 30.5317 53.2231 30.5317C53.6462 30.5317 54.1539 32.9063 54.3231 35.7051C54.7462 41.6418 56.1 43.2532 60.6692 43.2532C63.0385 43.2532 63.4615 42.9987 63.4615 41.2177C63.4615 39.6911 62.9539 39.0975 61.6 38.843C59.9077 38.5886 59.6539 37.9949 59.4 34.5177C59.1462 30.7013 59.2308 30.5317 61.2615 30.5317C63.0385 30.5317 63.4615 30.1076 63.4615 28.4114C63.4615 26.7152 63.0385 26.2911 61.3462 26.2911C59.6539 26.2911 59.2308 25.8671 59.2308 24.1709C59.2308 22.3899 58.8077 22.0506 56.6923 22.0506C54.5769 22.0506 54.1539 22.3899 54.1539 24.1709Z" fill="black"/>
<path d="M34.2692 28.4114C32.5769 30.0228 32.1538 31.295 32.1538 34.7722C32.1538 38.2494 32.5769 39.5216 34.2692 41.1329C36.4692 43.4228 40.3615 43.9317 43.2384 42.4051C44.3384 41.8114 44.8461 41.8114 44.8461 42.4051C44.8461 42.8291 46.0307 43.2532 47.3846 43.2532H49.923V34.7722V26.2912H47.3846C46.0307 26.2912 44.8461 26.7152 44.8461 27.1393C44.8461 27.7329 44.3384 27.7329 43.2384 27.1393C40.3615 25.6127 36.4692 26.1216 34.2692 28.4114ZM43.5769 32.2279C45.6077 34.5178 44.6769 37.995 41.7153 38.6734C40.1077 39.0975 39.1769 38.8431 38.3307 37.7405C34.9461 33.076 39.7692 27.9874 43.5769 32.2279Z" fill="black"/>
<path d="M96.4615 34.7722V43.2532H99H101.538V37.9101C101.538 32.3975 102.469 30.5317 105.092 30.5317C107.208 30.5317 108.308 33.1608 108.308 38.5038C108.308 43.2532 108.308 43.2532 110.846 43.2532H113.385V36.9772C113.385 31.9734 113.046 30.362 111.608 28.4962C109.746 26.1215 106.192 25.5279 103.146 27.1392C102.046 27.7329 101.538 27.7329 101.538 27.1392C101.538 26.7152 100.438 26.2911 99 26.2911H96.4615V34.7722Z" fill="black"/>
<path d="M55 53.2608C53.4769 53.6848 51.6154 55.9747 51.6154 57.3317C51.6154 59.1975 55.9307 63.6076 59.4846 65.4734C62.4461 66.9152 63.3769 67.0848 66.0846 66.2367C71.2461 64.7101 76.4077 57.5013 74.9692 53.8545C74.3769 52.2431 72.0077 52.2431 67.7769 53.9393C64.9 55.1266 63.9692 55.1266 60.4154 54.0241C58.1307 53.3456 55.6769 53.0063 55 53.2608Z" fill="black"/>
</svg>
