<svg width="173" height="96" viewBox="0 0 173 96" fill="none" xmlns="http://www.w3.org/2000/svg">
<path d="M157.878 3.15955C153.159 5.58993 148.32 9.35702 139.973 17.0127C133.319 23.0887 131.746 26.9773 136.948 24.1823C138.279 23.4532 142.634 23.0887 146.385 23.3317C154.611 23.9393 160.539 27.8279 164.773 35.2406C166.346 37.914 168.04 40.1013 168.645 40.1013C169.855 40.1013 168.645 13.6102 167.193 8.02031C165.741 2.67347 162.354 0.850685 157.878 3.15955ZM164.41 7.53423C165.015 9.11398 165.741 15.5545 166.225 21.8735L167.072 33.4178L164.41 30.0152C160.297 24.6684 152.434 20.6583 145.78 20.6583H139.973L142.271 18.1064C146.385 13.4887 158.724 4.86081 161.023 4.86081C162.354 4.86081 163.806 6.076 164.41 7.53423Z" fill="black"/>
<path d="M155.337 9.47854C152.796 11.4228 149.53 14.2178 148.32 15.676C146.022 18.2279 146.022 18.2279 149.651 18.2279C151.829 18.2279 155.458 19.8077 158.482 21.995L163.685 25.7621L162.959 17.0127C162.596 12.152 161.749 7.65576 161.144 7.04816C160.539 6.44057 157.999 7.53424 155.337 9.47854Z" fill="black"/>
<path d="M10.1622 5.46834C8.22654 8.38479 3.14542 38.7645 4.35521 39.9797C4.59717 40.3443 7.62164 37.5494 10.8881 33.7823C14.1545 30.1367 18.5098 26.3696 20.4454 25.519C23.9538 24.0607 31.6965 24.3038 39.3181 26.1266C42.5846 26.8557 41.7377 25.762 32.6643 16.4051C18.5098 1.94429 13.9126 -0.243053 10.1622 5.46834ZM24.3167 11.4228C34.9629 20.7797 35.3258 21.8734 28.43 21.8734C22.0181 21.8734 16.816 24.1823 11.0091 29.6506L7.01675 33.4177L7.62164 29.7721C7.98458 27.7063 8.71045 23.3316 9.07339 20.0506C10.4042 9.23543 11.9769 4.86074 14.5174 4.86074C15.7272 4.86074 20.2035 7.89872 24.3167 11.4228Z" fill="black"/>
<path d="M13.9125 8.50632C13.5495 9.11392 12.9447 13.2456 12.4607 17.6202L11.7349 25.6405L16.3321 22.6025C19.1146 20.6582 22.623 19.443 25.2845 19.443H29.5188L23.5908 13.3671C17.6628 7.41265 15.3642 6.19746 13.9125 8.50632Z" fill="black"/>
<path d="M22.986 31.7165C15.1223 34.876 11.13 42.7748 13.1867 50.795C15.1223 57.8431 19.2356 61.0026 27.2202 61.7317C33.5111 62.2178 33.9951 62.0963 38.1083 57.9647C40.4069 55.6558 42.3426 53.1039 42.3426 52.3748C42.3426 50.309 36.1727 50.795 33.6321 53.1039C30.6076 55.8988 24.3167 55.6558 22.1391 52.7393C21.1713 51.4026 20.5664 48.3646 20.8083 45.5697C21.0503 41.8026 21.8972 40.3444 24.5587 38.8862C27.5832 37.1849 28.1881 37.3064 31.5755 39.1292C35.4468 41.4381 42.3426 42.0457 42.3426 40.2229C42.3426 37.914 35.0839 31.9596 31.3335 31.1089C26.7363 30.2583 26.7363 30.2583 22.986 31.7165Z" fill="black"/>
<path d="M111.422 32.5671C105.252 35.6051 102.469 40.2228 102.469 46.5418C102.711 55.8988 108.76 61.9747 117.955 61.9747C127.27 61.9747 133.077 55.7773 133.077 45.8127C133.077 39.4937 129.81 34.5114 123.883 32.0811C118.559 29.8937 116.382 29.8937 111.422 32.5671ZM123.399 40.1013C125.818 42.5317 126.665 49.0937 124.85 51.7671C123.278 54.319 118.559 55.8988 115.535 55.1697C106.945 52.9823 109.002 37.6709 117.955 37.6709C119.648 37.6709 122.068 38.7646 123.399 40.1013Z" fill="black"/>
<path d="M77.4265 34.633C77.4265 36.3342 76.9426 37.6709 76.2167 37.6709C75.6119 37.6709 75.007 39.0076 75.007 40.7089C75.007 42.4102 75.4909 43.7469 76.0958 43.7469C76.7007 43.7469 77.4265 47.1494 77.6685 51.1595C78.2734 59.6659 80.2091 61.9747 86.7419 61.9747C90.1293 61.9747 90.7342 61.6102 90.7342 59.0583C90.7342 56.8709 90.0084 56.0203 88.0727 55.6557C85.6531 55.2912 85.2902 54.4406 84.9272 49.4583C84.5643 43.9899 84.6853 43.7469 87.5888 43.7469C90.1293 43.7469 90.7342 43.1393 90.7342 40.7089C90.7342 38.2785 90.1293 37.6709 87.7098 37.6709C85.2902 37.6709 84.6853 37.0633 84.6853 34.633C84.6853 32.0811 84.0804 31.595 81.0559 31.595C78.0314 31.595 77.4265 32.0811 77.4265 34.633Z" fill="black"/>
<path d="M48.9964 40.7088C46.5768 43.0177 45.9719 44.8405 45.9719 49.8227C45.9719 54.805 46.5768 56.6278 48.9964 58.9367C52.1419 62.2177 57.7069 62.9468 61.8202 60.7595C63.3929 59.9088 64.1188 59.9088 64.1188 60.7595C64.1188 61.367 65.8125 61.9746 67.7481 61.9746H71.3775V49.8227V37.6708H67.7481C65.8125 37.6708 64.1188 38.2784 64.1188 38.886C64.1188 39.7367 63.3929 39.7367 61.8202 38.886C57.7069 36.6987 52.1419 37.4278 48.9964 40.7088ZM62.3041 46.1772C65.2076 49.4582 63.8768 54.4405 59.6426 55.4126C57.344 56.0202 56.0132 55.6557 54.8034 54.0759C49.9642 47.3924 56.86 40.1012 62.3041 46.1772Z" fill="black"/>
<path d="M137.916 49.8228V61.9747H141.545H145.175V54.319C145.175 46.4203 146.506 43.7469 150.256 43.7469C153.28 43.7469 154.853 47.514 154.853 55.1697C154.853 61.9747 154.853 61.9747 158.482 61.9747H162.112V52.9823C162.112 45.8127 161.628 43.5038 159.571 40.8304C156.91 37.4279 151.829 36.5773 147.473 38.8861C145.901 39.7368 145.175 39.7368 145.175 38.8861C145.175 38.2785 143.602 37.6709 141.545 37.6709H137.916V49.8228Z" fill="black"/>
<path d="M78.6363 76.314C76.4587 76.9215 73.7971 80.2026 73.7971 82.1469C73.7971 84.8203 79.9671 91.1393 85.0482 93.8127C89.2824 95.8785 90.6132 96.1216 94.4845 94.9064C101.864 92.719 109.244 82.3899 107.187 77.1646C106.34 74.8557 102.953 74.8557 96.9041 77.2861C92.7908 78.9874 91.4601 78.9874 86.3789 77.4076C83.1125 76.4355 79.6041 75.9494 78.6363 76.314Z" fill="black"/>
</svg>
