<svg width="57" height="57" viewBox="0 0 57 57" fill="none" xmlns="http://www.w3.org/2000/svg">
<path d="M27.8543 13.4819C23.5014 13.9049 19.616 16.5991 17.6789 20.529C16.5768 22.7889 16.1203 25.4163 16.4877 27.4536C16.844 29.5131 18.2578 32.5079 20.2951 35.5694C22.299 38.5641 25.5832 42.6721 28.2996 45.5778L29.1235 46.4573L29.7358 45.8004C34.1889 41.0801 38.308 35.5249 40.2563 31.6172C41.4586 29.1903 41.8594 27.7875 41.8594 25.9506C41.8594 23.5237 41.1469 21.2192 39.7553 19.0928C39.1319 18.1354 37.718 16.6436 36.7383 15.9088C35.7252 15.1407 33.7658 14.1944 32.5078 13.8604C31.6283 13.6377 29.3016 13.3149 28.8897 13.3706C28.834 13.3817 28.3664 13.4262 27.8543 13.4819ZM31.1942 20.3731C32.519 20.8629 33.61 21.7981 34.278 22.9893C34.8569 24.0135 35.0127 24.6592 35.0016 25.9952C35.0016 27.0416 34.9571 27.3311 34.701 27.9768C33.1535 31.9624 28.2551 33.1424 25.1268 30.2813C21.8649 27.2977 22.9002 22.0208 27.075 20.362C28.2217 19.9055 29.9696 19.9055 31.1942 20.3731Z" fill="black"/>
</svg>
