<svg width="24" height="17" viewBox="0 0 24 17" fill="none" xmlns="http://www.w3.org/2000/svg">
<g clip-path="url(#clip0)">
<path d="M2.33437 0.0223427C2.28375 0.031641 2.16937 0.0521011 2.08125 0.0669804C1.09875 0.243677 0.277496 1.04532 0.0768711 2.01994C-0.00750393 2.43843 -0.00750393 2.39751 0.0168711 4.35418C0.0356211 5.81239 0.0356211 7.04926 0.0187461 10.2205C0.00562108 12.4301 -3.92389e-06 14.3291 0.00562108 14.4426C0.0543711 15.4302 0.517496 16.1984 1.33687 16.6597C1.56375 16.7861 1.905 16.9033 2.16937 16.9442C2.30625 16.9647 16.8656 17.0056 19.9969 16.9944C21.8138 16.9889 21.7425 16.9926 22.1531 16.8791C22.3613 16.8215 22.7663 16.6243 22.9406 16.4941C23.2425 16.2709 23.5106 15.9584 23.6869 15.6237C23.8238 15.3633 23.895 15.1475 23.9531 14.8183L24 14.5449L23.9963 8.31031L23.9906 2.07387L23.9288 1.86928C23.8556 1.62376 23.6625 1.22945 23.5275 1.0509C23.4019 0.883501 23.1469 0.630548 22.9781 0.50593C22.8075 0.379454 22.4025 0.180439 22.1981 0.12278C22.1081 0.0967407 21.9206 0.0595417 21.7819 0.0390816L21.5288 2.28882e-05L11.9775 0.00188255C6.29062 0.00374222 2.39062 0.0111828 2.33437 0.0223427ZM21.5363 1.34105C21.5438 1.35407 19.6838 3.21217 16.9388 5.93514C13.3181 9.52672 12.3075 10.5199 12.2363 10.5553C12.1106 10.6185 11.9813 10.6167 11.8575 10.5553C11.7863 10.5181 10.6988 9.45232 7.14563 5.93514C4.26187 3.08197 2.53125 1.35593 2.53875 1.34291C2.5575 1.31129 21.5175 1.31129 21.5363 1.34105ZM22.7213 8.38099L22.7156 14.7402L22.6744 14.8815C22.575 15.2293 22.3913 15.4656 22.1231 15.5939C22.0444 15.6311 21.96 15.6609 21.9338 15.6609C21.8981 15.6609 21.2081 14.9857 18.66 12.4543C16.8844 10.6911 15.4313 9.23657 15.4313 9.22169C15.4313 9.18635 22.6931 1.98832 22.71 2.00506C22.7194 2.01436 22.7231 4.88241 22.7213 8.38099ZM5.03437 5.59849L8.61563 9.15101L5.3325 12.4078L2.0475 15.6664L1.93875 15.6162C1.71937 15.5158 1.57875 15.3577 1.485 15.101L1.43437 14.9634L1.42875 8.50374C1.42687 4.95309 1.43062 2.04597 1.43812 2.04597C1.4475 2.04597 3.06562 3.64554 5.03437 5.59849ZM10.6763 11.1802C11.4488 11.9521 11.835 12.3241 11.8819 12.3427C11.97 12.3799 12.1256 12.3799 12.2175 12.3408C12.27 12.3204 12.6038 12.0023 13.3969 11.2156C14.0063 10.6111 14.5125 10.1182 14.5219 10.1182C14.55 10.1182 20.1563 15.685 20.1563 15.7111C20.1563 15.7297 18.5119 15.7353 11.9719 15.7353C5.44125 15.7353 3.7875 15.7297 3.7875 15.7129C3.7875 15.6776 9.4725 10.0438 9.50813 10.0438C9.525 10.0438 10.05 10.5553 10.6763 11.1802Z" fill="#414141"/>
</g>
<defs>
<clipPath id="clip0">
<rect width="24" height="17" fill="white"/>
</clipPath>
</defs>
</svg>
