<svg width="14" height="19" viewBox="0 0 14 19" fill="none" xmlns="http://www.w3.org/2000/svg">
<path d="M4.27581 0.026535C4.2379 0.041379 3.95284 0.207629 3.64391 0.39466C3.33499 0.583176 2.93338 0.826614 2.75224 0.934973C2.32957 1.1888 2.26077 1.26005 2.21583 1.49013C2.18353 1.64747 2.19477 1.67419 2.59918 2.40302C3.2732 3.62021 4.65495 6.04419 4.71252 6.11396C4.78835 6.20154 4.89788 6.2713 5.01162 6.30247C5.17029 6.34404 5.17591 6.34255 5.92436 5.88833C6.29226 5.66419 6.70089 5.4163 6.83429 5.33763C7.16568 5.13872 7.25274 5.03482 7.29066 4.78841C7.32014 4.59693 7.30751 4.56427 6.99437 4.01505C5.52696 1.44857 4.81222 0.206145 4.77571 0.160129C4.6732 0.0309882 4.43168 -0.0343242 4.27581 0.026535Z" fill="#484B4D"/>
<path d="M1.67522 2.01867C0.930983 2.24429 0.422658 2.81577 0.174112 3.70937C-0.226089 5.14476 0.081434 7.40546 1.01804 9.91554C1.96589 12.4538 3.39959 14.8644 4.96388 16.5492C6.3035 17.9905 7.58133 18.7847 8.86057 18.9717C9.03891 18.9984 9.57391 18.9984 9.7382 18.9732C10.0443 18.9242 10.3167 18.847 10.5863 18.7342C10.7071 18.6823 10.8349 18.6214 10.8517 18.6066C10.8588 18.6006 9.62727 16.334 9.48264 16.0905C9.3352 15.8412 9.04593 15.3424 8.59798 14.5616C8.35927 14.1475 8.40139 14.1802 8.18655 14.2366C8.00681 14.2826 7.63329 14.287 7.42125 14.244C6.95646 14.1534 6.42286 13.8714 5.94683 13.4677C5.75164 13.3029 5.38936 12.9288 5.20681 12.7062C4.93018 12.3677 4.64934 11.9551 4.41624 11.5409C4.27441 11.2886 4.2042 11.1402 4.11012 10.8878C3.87421 10.2555 3.72817 9.6721 3.65656 9.07687C3.62145 8.78296 3.62426 8.27531 3.66358 8.00515C3.738 7.48117 3.91353 7.04476 4.19297 6.68406C4.2351 6.63062 4.26599 6.58312 4.26318 6.57718C4.26037 6.57273 4.18454 6.43617 4.09467 6.27437C3.85877 5.84984 3.51333 5.18781 2.94884 4.08195C2.25796 2.72523 1.85917 1.97413 1.83249 1.97562C1.82547 1.97562 1.75385 1.99492 1.67522 2.01867Z" fill="#484B4D"/>
<path d="M10.7984 12.0441C10.7717 12.056 10.4656 12.2371 10.1174 12.4493C9.77055 12.6616 9.36894 12.9035 9.22571 12.9881C8.94627 13.1559 8.84938 13.239 8.79321 13.3607C8.7216 13.5166 8.72581 13.6799 8.80304 13.8253C9.7874 15.6719 11.1607 18.1701 11.2379 18.2547C11.2632 18.2814 11.3236 18.3259 11.3742 18.3512C11.457 18.3942 11.4767 18.3987 11.5988 18.3987H11.7336L11.9569 18.2621C12.0805 18.1879 12.4975 17.9356 12.8837 17.7025C13.2698 17.468 13.6026 17.2587 13.6251 17.2364C13.6827 17.18 13.7318 17.0954 13.7627 16.9989C13.7936 16.9054 13.7992 16.7035 13.7726 16.6234C13.7641 16.5952 13.6321 16.3488 13.4805 16.0756C13.3274 15.8025 12.9146 15.0544 12.5607 14.4131C11.6396 12.7432 11.3615 12.246 11.3152 12.1836C11.2899 12.1495 11.2379 12.1094 11.1804 12.0797C11.1003 12.0381 11.0708 12.0307 10.9669 12.0278C10.8925 12.0248 10.8293 12.0322 10.7984 12.0441Z" fill="#484B4D"/>
</svg>
