<svg width="32" height="32" viewBox="0 0 32 32" fill="none" xmlns="http://www.w3.org/2000/svg">
<g clip-path="url(#clip0)">
<path fill-rule="evenodd" clip-rule="evenodd" d="M31.8799 6.16C30.8629 6.62 29.7439 6.899 28.6479 7.083C29.1679 6.995 29.9359 6.053 30.2429 5.671C30.7109 5.09 31.0999 4.426 31.3189 3.711C31.3469 3.655 31.3689 3.585 31.3129 3.542C31.2429 3.515 31.1969 3.529 31.1409 3.557C29.9275 4.20495 28.6378 4.69877 27.3019 5.027C27.2556 5.0414 27.2062 5.04248 27.1593 5.0301C27.1125 5.01772 27.07 4.99238 27.0369 4.957C26.9343 4.83385 26.8223 4.71884 26.7019 4.613C26.1474 4.1353 25.5193 3.75034 24.8419 3.473C23.9377 3.10676 22.9624 2.94951 21.9889 3.013C21.0433 3.07729 20.1213 3.33782 19.2819 3.778C18.4411 4.21756 17.6986 4.82391 17.0999 5.56C16.4786 6.32428 16.0334 7.2161 15.7959 8.172C15.5719 9.092 15.5899 10 15.7259 10.929C15.7479 11.083 15.7339 11.104 15.5949 11.083C10.3189 10.3 5.94891 8.412 2.39991 4.37C2.24591 4.194 2.16191 4.194 2.03591 4.383C0.482914 6.711 1.23591 10.45 3.17591 12.288C3.43491 12.533 3.69991 12.778 3.98691 13.001C3.88291 13.023 2.59191 12.883 1.44091 12.288C1.28691 12.191 1.20991 12.247 1.19591 12.421C1.18592 12.6738 1.19998 12.9269 1.23791 13.177C1.53591 15.537 3.16991 17.719 5.40791 18.571C5.67391 18.682 5.96691 18.781 6.25391 18.829C5.74391 18.941 5.21891 19.021 3.75691 18.907C3.57491 18.871 3.50491 18.962 3.57491 19.137C4.67291 22.132 7.04491 23.023 8.82091 23.53C9.05891 23.572 9.29691 23.572 9.53491 23.628C9.52091 23.649 9.50691 23.649 9.49291 23.67C8.90291 24.568 6.86091 25.237 5.90991 25.57C4.17991 26.174 2.29691 26.446 0.467914 26.266C0.175914 26.223 0.113914 26.226 0.034914 26.266C-0.045086 26.316 0.024914 26.386 0.118914 26.461C0.488914 26.706 0.866914 26.923 1.25191 27.133C2.40786 27.7493 3.62779 28.2372 4.88991 28.588C11.4269 30.393 18.7899 29.067 23.6999 24.19C27.5529 20.36 28.9039 15.079 28.9039 9.79C28.9039 9.584 29.1479 9.47 29.2939 9.36C30.2969 8.607 31.0939 7.705 31.8419 6.698C32.0099 6.472 31.9999 6.271 31.9999 6.188V6.16C31.9999 6.076 32.0099 6.101 31.8799 6.16Z" fill="#15D160"/>
</g>
<defs>
<clipPath id="clip0">
<rect width="32" height="32" fill="white"/>
</clipPath>
</defs>
</svg>
