<svg width="21" height="19" viewBox="0 0 21 19" fill="none" xmlns="http://www.w3.org/2000/svg">
<path d="M10.0652 0.0174131C8.47705 0.142705 7.01525 1.00231 6.14736 2.32184C5.9144 2.67551 5.69947 3.13069 5.56986 3.54463C5.30572 4.38837 5.28932 5.34947 5.52229 6.33594C5.66502 6.9402 5.87502 7.50164 6.1851 8.11224C7.04479 9.80448 8.3458 10.986 9.7108 11.3159C10.2227 11.4396 10.7772 11.4396 11.2891 11.3159C12.0208 11.1383 12.7312 10.7228 13.3874 10.0868C14.5096 9.00039 15.3578 7.33352 15.5859 5.76182C15.7942 4.3281 15.4317 2.98795 14.5359 1.88728C14.3636 1.67476 13.9223 1.24972 13.6992 1.07843C12.6754 0.293373 11.3777 -0.0856752 10.0652 0.0174131Z" fill="#484B4D"/>
<path d="M9.76987 12.3327C8.34417 12.4009 7.34831 12.5182 6.27534 12.745C2.38214 13.5713 -0.0837199 15.4206 0.00487385 17.4459C0.0426082 18.3039 0.542999 18.7622 1.61597 18.9272C1.9523 18.9795 2.18034 18.9922 2.78081 18.9922C3.53386 18.9906 4.00472 18.9636 5.54526 18.8336C7.69612 18.6512 8.49511 18.602 9.77315 18.5703C10.3195 18.556 10.6804 18.556 11.2251 18.5703C12.5048 18.602 13.3038 18.6512 15.4546 18.8336C16.9952 18.9636 17.466 18.9906 18.2191 18.9922C18.9574 18.9922 19.2757 18.9652 19.6957 18.8669C20.621 18.648 21.0377 18.1278 20.995 17.2413C20.9228 15.7362 19.4889 14.3532 17.0214 13.4096C15.5186 12.8354 13.7287 12.4786 11.7304 12.3549C11.4663 12.3374 9.99956 12.3216 9.76987 12.3327Z" fill="#484B4D"/>
</svg>
